# xmcd
#
# Track frame offsets: 
#        150
#        53070
#        99165
#        128075
#        169285
#
# Disc length: 2770 seconds
#
# Revision: 2
# Processed by: cddbd v1.5.2PL0 Copyright (c) Steve Scherf et al.
# Submitted via: ExactAudioCopy v0.95b4
#
DISCID=370ad005
DTITLE=Dave Brubeck - Jazz goes to Junior College
DYEAR=1957
DGENRE=Jazz
TTITLE0=Bru's Blues
TTITLE1=These foolish things (Remind Me of You)
TTITLE2=I'm Afraid the Masquerade Is Over
TTITLE3=One Moment Worth Years
TTITLE4=St. Louis Blues
EXTD=
EXTT0=
EXTT1=
EXTT2=
EXTT3=
EXTT4=
PLAYORDER=
